<?xml version="1.0" encoding="UTF-8"?>
<svg width="800" height="800" version="1.1" viewBox="0 0 800.00001 800.00001" xmlns="http://www.w3.org/2000/svg">
 <path d="m397.09 195.62c-129.18 0.27974-261.38 59.541-397.09 187.69 266.66 313.39 533.34 285.41 800 0-127.31-117.77-257.27-183.9-390.42-187.53-4.1608-0.11339-8.3231-0.16723-12.49-0.1582zm0.82617 56.605c3.023-0.00655 6.044 0.03102 9.0625 0.11328 96.592 2.6323 190.87 50.609 283.23 136.04-193.45 207.06-386.91 227.35-580.37 0 98.454-92.966 194.36-135.96 288.07-136.16zm3.1074 30.822a120.25 120.25 0 0 0 -120.25 120.25 120.25 120.25 0 0 0 120.25 120.25 120.25 120.25 0 0 0 120.25 -120.25 120.25 120.25 0 0 0 -3.8301 -29.721l-116.42 29.721s50.217-69.736 70.598-97.184a120.25 120.25 0 0 0 -70.598 -23.068z" color="#000000" color-rendering="auto" fill="#404040" image-rendering="auto" shape-rendering="auto" solid-color="#000000" style="isolation:auto;mix-blend-mode:normal"/>
</svg>
